# xmcd
#
# Track frame offsets:
#	150
#	23555
#	40520
#	51925
#	66791
#	79012
#	94934
#	106587
#	120493
#	121518
#	126935
#	144468
#	157797
#	171989
#	193528
#	221735
#	237671
#	250267
#	251293
#	270388
#
# Disc length: 3964 seconds
#
# Revision: 1
# Processed by: cddbd v1.5.2PL0 Copyright (c) Steve Scherf et al.
# Submitted via: audiograbber 1.82.02
#
DISCID=040f7a14
DTITLE=Cool Water Music - Southern Culture compilation
DYEAR=2009
DGENRE=Southern Roots
TTITLE0=1 - Cecil Barfield - Georgia Blues
TTITLE1=2 - Murry Hammond - Satan, Your Kindgom Must Come
TTITLE2=3 - Charlie Louvin - Must You Throw Dirt In My Face
TTITLE3=4 - Schooner - Married
TTITLE4=5 - Michael Holland - Lighten Up Angel
TTITLE5=6 - Captain Luke - Waiter
TTITLE6=7 - Macavine Hayes - Sweet Little Angel
TTITLE7=8 - James "Son" Thomas - Cool Water
TTITLE8=9 - James "Son" Thomas - Nothing But The Blues
TTITLE9=10 - B.B. King - Me And Lucille
TTITLE10=11 - The Rosebuds - Leaves Do Fall
TTITLE11=12 - Thad Cockrell - Pride (Won't Get Us Where We're..
TTITLE12=13 - The Kingsbury Manx - Well, Whatever
TTITLE13=14 - Sinful Savage Tigers - Natural Ghost
TTITLE14=15 - Haskel "Whislin' Britches" Thompson - Clickin' With Cool
TTITLE15=16 - Midtown Dickens - The Job Song
TTITLE16=17 - Red Fox Chasers - Virginia Bootleggers
TTITLE17=18 - Pete Seeger - Sing A Serious Song
TTITLE18=19 - Nimrod Workman - 42 Years
TTITLE19=20 - Pura Fe' - Going Home - Stomp Dance
EXTD=enclosed with Southern Cultures magazine, from UNC-Chapel Hill
EXTT0=
EXTT1=
EXTT2=
EXTT3=
EXTT4=
EXTT5=
EXTT6=
EXTT7=
EXTT8=
EXTT9=
EXTT10=
EXTT11=
EXTT12=
EXTT13=
EXTT14=
EXTT15=
EXTT16=
EXTT17=
EXTT18=
EXTT19=
PLAYORDER=
